<?xml version="1.0" standalone="no"?><!DOCTYPE svg PUBLIC "-//W3C//DTD SVG 1.1//EN" "http://www.w3.org/Graphics/SVG/1.1/DTD/svg11.dtd"><svg t="1556434537462" class="icon" style="" viewBox="0 0 1024 1024" version="1.1" xmlns="http://www.w3.org/2000/svg" p-id="1973" xmlns:xlink="http://www.w3.org/1999/xlink" width="48" height="48"><defs><style type="text/css"></style></defs><path d="M900.708999 434.096722 572.598146 128.216173c-19.24532-18.526959-40.571021-29.744441-65.920362-29.806863-25.059745 0-47.609321 11.528568-64.85203 28.622898L125.774565 433.894108c-15.746636 16.118096-20.297278 39.939641-11.553127 60.735269 8.738012 20.781302 28.950356 34.20401 51.491745 34.20401l43.74327 0 0 311.289746c0 48.420803 39.378869 87.799672 87.799672 87.799672l151.653979-0.100284-0.00614-253.983575 127.046534 0-0.202615 253.983575 152.525835 0.100284c48.421826 0 87.799672-39.378869 87.799672-87.799672l0-311.289746 44.493354 0c22.479991 0 42.674938-13.375635 51.444673-34.07712C920.788314 474.052736 916.345118 450.247564 900.708999 434.096722zM867.908966 476.077859c-1.254573 2.962471-4.131087 4.863774-23.304775 4.863774l-76.420507 0 0 359.180476c0 22.01234-17.895579 39.908942-39.908942 39.908942L623.841228 880.031051 623.841228 665.724127c0-21.933545-16.2061-39.776935-36.120662-39.776935l-150.579507 0c-19.922748 0-36.126802 17.842367-36.126802 39.776935l0 214.307947L297.257148 880.032074c-22.01234 0-39.908942-17.896602-39.908942-39.908942l0-359.180476-91.634 0c-3.212158 0-6.094812-1.917676-7.341199-4.878101-1.26276-2.978844-0.607844-6.377244 1.62808-8.683776l316.846298-307.704081c7.251148-7.249101 18.426675-12.822027 29.931706-12.822027 11.404748 0.031722 22.292726 4.40431 30.618345 13.836123l328.905962 306.72273C868.548532 469.718011 869.170702 473.116411 867.908966 476.077859z" p-id="1974"></path></svg>